<svg xmlns="http://www.w3.org/2000/svg" width="25" height="25" viewBox="0 0 25 25">
  <path fill="none" stroke="#717171" stroke-linecap="round" stroke-linejoin="round" d="M12.5124634,0.829506665 C12.5285695,0.792767035 12.5470526,0.758875989 12.5718368,0.723339312 C12.6178249,0.657399352 12.6793623,0.600609301 12.7497496,0.559143893 C12.8300092,0.507009378 12.915866,0.484944799 13,0.486203222 C13.084134,0.484944799 13.1699908,0.507009378 13.2502504,0.559143893 C13.3206377,0.600609301 13.3821751,0.657399353 13.4281632,0.723339311 C13.4529474,0.758875988 13.4714305,0.792767035 13.4875366,0.829506665 C15.3505246,3.53418404 16.3586243,6.6957755 16.3586243,9.9986832 C16.3586243,10.9278332 16.2789789,11.8471377 16.121986,12.7500696 C17.9207048,11.1891696 20.1054642,10.1513301 22.4594148,9.71131728 L23.1930595,9.57418055 L23.0407664,10.3048295 C22.5367159,12.723087 21.2946636,14.9511456 19.4172979,16.7290037 C19.3205572,16.8206168 19.2225282,16.9106624 19.1232403,16.9991252 C20.9778035,17.1123842 22.7422051,17.6854607 24.2679601,18.6539709 L24.9329749,19.0761052 L24.2679601,19.4982396 C22.5558912,20.585017 20.5433337,21.1738894 18.440081,21.1738894 C18.1832587,21.1738894 17.9275856,21.1651257 17.6734073,21.1476978 C18.2625451,21.9808674 18.669094,22.9137462 18.8742421,23.897975 L19.0265352,24.6286239 L18.2928905,24.4914872 C16.7537761,24.2037878 15.333396,23.4936964 14.1975887,22.4180911 C13.7104755,21.9567968 13.3248425,21.4682635 13,20.9080129 C12.6751575,21.4682635 12.2895245,21.9567968 11.8024113,22.4180911 C10.666604,23.4936964 9.24622389,24.2037878 7.70710949,24.4914872 L6.97346477,24.6286239 L7.12575789,23.897975 C7.33090604,22.9137462 7.73745491,21.9808674 8.32659266,21.1476978 C8.07241443,21.1651257 7.81674133,21.1738894 7.55991905,21.1738894 C5.45666631,21.1738894 3.44410876,20.585017 1.73203994,19.4982396 L1.06702515,19.0761052 L1.73203994,18.6539709 C3.25779491,17.6854607 5.02219653,17.1123842 6.8767597,16.9991252 C6.7774718,16.9106624 6.67944276,16.8206168 6.58270206,16.7290037 C4.7053364,14.9511456 3.46328413,12.723087 2.9592336,10.3048295 L2.80694048,9.57418055 L3.5405852,9.71131728 C5.89453584,10.1513301 8.07929522,11.1891696 9.87801401,12.7500696 C9.72102108,11.8471377 9.6413757,10.9278332 9.6413757,9.9986832 C9.6413757,6.6957755 10.6494754,3.53418404 12.5124634,0.829506665 Z"/>
</svg>
