<?xml version="1.0" encoding="UTF-8"?>
<svg width="35px" height="35px" viewBox="0 0 35 35" version="1.1" xmlns="http://www.w3.org/2000/svg" xmlns:xlink="http://www.w3.org/1999/xlink">
    <g id="production" stroke="none" stroke-width="1" fill="none" fill-rule="evenodd" stroke-linecap="round" stroke-linejoin="round">
        <g id="icons" transform="translate(-30.000000, -20.000000)" stroke="#717171">
            <path d="M41.3627706,20.8320158 C41.3786224,20.7953267 41.3968166,20.761495 41.4212617,20.7259632 C41.4658581,20.6611408 41.5254585,20.6049726 41.5937614,20.5632819 C41.6759782,20.5077608 41.7643941,20.4843964 41.850998,20.4857856 C41.9376018,20.4843964 42.0260177,20.5077608 42.1082345,20.5632819 C42.1765375,20.6049726 42.2361378,20.6611408 42.2807342,20.7259632 C42.3051793,20.761495 42.3233735,20.7953267 42.3392253,20.8320158 C44.1767336,23.5362857 45.1709004,26.6969502 45.1709004,29.9986832 C45.1709004,30.9238862 45.0929674,31.8393283 44.9393378,32.7385683 C46.7116842,31.1844557 48.8626075,30.1506392 51.1798164,29.7115465 L51.9129378,29.5726259 L51.7626605,30.3035039 C51.2656027,32.7209588 50.0405751,34.9486531 48.1884913,36.7266535 C48.0921318,36.8191586 47.9944758,36.9100672 47.8955531,36.9993634 C49.7258608,37.1132561 51.4670318,37.6868415 52.9725632,38.6556372 L53.6259804,39.0761052 L52.9725632,39.4965732 C51.2821208,40.5843574 49.2946012,41.1738894 47.2173895,41.1738894 C46.9660174,41.1738894 46.7157596,41.1652721 46.4669492,41.1481346 C47.048793,41.9816602 47.4501624,42.9148636 47.6525744,43.8993006 L47.8028518,44.6301786 L47.0697303,44.4912579 C45.5493864,44.2031649 44.1465891,43.4922335 43.0252427,42.415741 C42.5482172,41.9577965 42.1699003,41.4731349 41.850998,40.9182451 C41.5320956,41.4731349 41.1537787,41.9577965 40.6767532,42.415741 C39.5554068,43.4922335 38.1526095,44.2031649 36.6322656,44.4912579 L35.8991441,44.6301786 L36.0494215,43.8993006 C36.2518335,42.9148636 36.6532029,41.9816602 37.2350467,41.1481346 C36.9862363,41.1652721 36.7359786,41.1738894 36.4846064,41.1738894 C34.4073947,41.1738894 32.4198751,40.5843574 30.7294327,39.4965732 L30.0760155,39.0761052 L30.7294327,38.6556372 C32.2349641,37.6868415 33.9761351,37.1132561 35.8064428,36.9993634 C35.7075201,36.9100672 35.6098641,36.8191586 35.5135046,36.7266535 C33.6614208,34.9486531 32.4363932,32.7209588 31.9393354,30.3035039 L31.7890581,29.5726259 L32.5221795,29.7115465 C34.8393884,30.1506392 36.9903117,31.1844557 38.7626581,32.7385683 C38.6090286,31.8393283 38.5310956,30.9238862 38.5310956,29.9986832 C38.5310956,26.6969502 39.5252624,23.5362857 41.3627706,20.8320158 Z" id="Explore"></path>
        </g>
    </g>
</svg>