<?xml version="1.0" encoding="UTF-8"?>
<svg width="18px" height="18px" viewBox="0 0 18 18" version="1.1" xmlns="http://www.w3.org/2000/svg" xmlns:xlink="http://www.w3.org/1999/xlink">
    <!-- Generator: Sketch 52.3 (67297) - http://www.bohemiancoding.com/sketch -->
    <title>map_view</title>
    <desc>Created with Sketch.</desc>
    <g id="ui_v1" stroke="none" stroke-width="1" fill="none" fill-rule="evenodd">
        <g id="icons" transform="translate(-251.000000, -70.000000)" fill="#666666" fill-rule="nonzero">
            <g id="map_view" transform="translate(251.000000, 70.000000)">
                <path d="M6.77720449,1.55397007 C6.59780607,1.48149191 6.40149365,1.48149191 6.22142666,1.55411892 L1.97053823,3.26757393 C1.68375819,3.38324992 1.5,3.6561923 1.5,3.967875 L1.5,15.443875 C1.5,15.6962 1.62395158,15.9299583 1.83135036,16.0700276 C2.03685817,16.2088276 2.29624176,16.2363023 2.5260724,16.1441315 L6.22312116,14.6539106 C6.40276171,14.5817473 6.60248159,14.5817473 6.77794508,14.6546385 L11.2206953,16.4456367 C11.3114277,16.4819296 11.4063986,16.500375 11.5,16.500375 C11.5936014,16.500375 11.6885723,16.4819296 11.7780923,16.4461235 L16.0290431,14.7328452 C16.3159745,14.6168067 16.5,14.3432986 16.5,14.031875 L16.5,2.555875 C16.5,2.30348648 16.3760529,2.07019829 16.1671496,1.92972241 C15.9618372,1.7910543 15.7033896,1.76381517 15.4728736,1.85614029 L11.7786597,3.34471256 C11.6008086,3.41739952 11.4005797,3.41776068 11.2225063,3.34579604 L6.77720449,1.55397007 Z M15.1000965,0.928219954 C15.6388678,0.712431222 16.2462789,0.776449454 16.7260059,1.1004585 C17.2106709,1.42636599 17.5,1.97092942 17.5,2.555875 L17.5,14.031875 C17.5,14.7504292 17.0690461,15.390935 16.4034077,15.6601265 L12.1506953,17.3741133 C11.9423365,17.4574569 11.7213614,17.500375 11.5,17.500375 C11.2786386,17.500375 11.0576635,17.4574569 10.8480549,17.3736115 L6.49965982,15.6206241 L2.89911199,17.0719465 C2.36083008,17.2878199 1.75231556,17.2233643 1.27166044,16.8987297 C0.788689045,16.572549 0.5,16.028115 0.5,15.443875 L0.5,3.967875 C0.5,3.24879807 0.931019646,2.6085897 1.59657334,2.34013108 L5.84747295,0.626671559 C6.26750635,0.457258086 6.73219393,0.457258086 7.15144508,0.626638504 L11.4990215,2.37926746 L15.1000965,0.928219954 Z M6.38095238,14.8428528 C6.27967164,14.8428528 6.17890315,14.8626177 6.08125034,14.9024577 L2.20740173,16.4638342 C1.94469813,16.5681614 1.69535685,16.5176517 1.50384547,16.3876123 C1.31131322,16.25737 1.16666667,16.0453488 1.16666667,15.7508517 L1.16666667,3.72838523 C1.16666667,3.41566649 1.35433199,3.133955 1.64473105,3.01688322 L6.09976414,1.22104153 C6.28065744,1.14837505 6.48229494,1.14837505 6.66377257,1.22127668 L11.3186639,3.09800254 C11.5131624,3.17631967 11.7246593,3.17623571 11.9192735,3.09806613 L15.7953843,1.5357976 C16.0585331,1.43277247 16.3040199,1.48322037 16.4919333,1.61008707 C16.686386,1.73876891 16.8333333,1.95377588 16.8333333,2.24914834 L16.8333333,14.271091 C16.8333333,14.5841239 16.6458661,14.8659652 16.3552879,14.9831092 L11.9007597,16.7789585 C11.7198664,16.851625 11.5187527,16.851625 11.3373199,16.7787414 L6.68132617,14.902094 C6.58421594,14.8627338 6.48252954,14.8428528 6.38095238,14.8428528 Z M5.70543914,13.9757639 C5.92106205,13.887784 6.15013788,13.8428528 6.38095238,13.8428528 C6.61147046,13.8428528 6.84068897,13.8876679 7.05606101,13.9749625 L11.6192987,15.8142229 L15.8333333,14.1153285 L15.8333333,2.59864733 L12.2925521,4.02578521 C11.8581864,4.20025531 11.3793066,4.20044541 10.9449417,4.02554319 L6.3814689,2.18567444 L2.16666667,3.88467848 L2.16666667,15.402088 L5.70543914,13.9757639 Z" id="Shape"></path>
                <path d="M6.5,12.75 C6.224,12.75 6,12.5424643 6,12.2857143 L6,3.46428571 C6,3.208 6.224,3 6.5,3 C6.776,3 7,3.208 7,3.46428571 L7,12.2857143 C7,12.5424643 6.776,12.75 6.5,12.75 Z" id="Shape"></path>
                <path d="M11.5,14.75 C11.224,14.75 11,14.5424643 11,14.2857143 L11,5.46428571 C11,5.208 11.224,5 11.5,5 C11.776,5 12,5.208 12,5.46428571 L12,14.2857143 C12,14.5424643 11.776,14.75 11.5,14.75 Z" id="Shape"></path>
            </g>
        </g>
    </g>
</svg>