<?xml version="1.0" encoding="UTF-8"?>
<svg width="34px" height="48px" viewBox="0 0 34 48" version="1.1" xmlns="http://www.w3.org/2000/svg" xmlns:xlink="http://www.w3.org/1999/xlink">
    <!-- Generator: Sketch 52.3 (67297) - http://www.bohemiancoding.com/sketch -->
    <title>map_pin</title>
    <desc>Created with Sketch.</desc>
    <g id="ui_v1" stroke="none" stroke-width="1" fill="none" fill-rule="evenodd">
        <g id="icons" transform="translate(-29.000000, -138.000000)" fill-rule="nonzero">
            <g id="map_pin" transform="translate(29.000000, 138.000000)">
                <path d="M16.9882678,0 C7.60211224,0.0131238028 -8.92857923e-06,7.73003978 0,17.2447968 C0,26.7591675 16.9882678,48 16.9882678,48 C16.9882678,48 34,26.7591675 34,17.2447968 C34,7.72075853 26.383588,5.83179151e-16 16.9882678,0 Z" id="Shape" fill="#1E1254"></path>
                <path d="M17,30 C9.82029825,30 4,24.1797017 4,17 C4,9.82029825 9.82029825,4 17,4 C24.1797017,4 30,9.82029825 30,17 C30,20.4478144 28.6303611,23.7544152 26.1923882,26.1923882 C23.7544152,28.6303611 20.4478144,30 17,30 Z M15.5,15.8 L12.5,15.8 C11.6715729,15.8 11,16.4715729 11,17.3 C11,18.1284271 11.6715729,18.8 12.5,18.8 L15.5,18.8 L15.5,21.8 C15.5,22.6284271 16.1715729,23.3 17,23.3 C17.8284271,23.3 18.5,22.6284271 18.5,21.8 L18.5,18.8 L21.5,18.8 C22.3284271,18.8 23,18.1284271 23,17.3 C23,16.4715729 22.3284271,15.8 21.5,15.8 L18.5,15.8 L18.5,12.8 C18.5,11.9715729 17.8284271,11.3 17,11.3 C16.1715729,11.3 15.5,11.9715729 15.5,12.8 L15.5,15.8 Z" id="Combined-Shape" fill="#FFFFFF"></path>
            </g>
        </g>
    </g>
</svg>