<?xml version="1.0" encoding="UTF-8"?>
<svg width="25px" height="26px" viewBox="0 0 25 26" version="1.1" xmlns="http://www.w3.org/2000/svg" xmlns:xlink="http://www.w3.org/1999/xlink">
    <!-- Generator: Sketch 52.3 (67297) - http://www.bohemiancoding.com/sketch -->
    <title>nav_products</title>
    <desc>Created with Sketch.</desc>
    <g id="ui_v1" stroke="none" stroke-width="1" fill="none" fill-rule="evenodd" stroke-linecap="round" stroke-linejoin="round">
        <g id="icons" transform="translate(-143.000000, -12.000000)" stroke="#1E1254">
            <path d="M154.832513,12.8351555 C154.848746,12.7973312 154.867311,12.7626488 154.89227,12.7263702 C154.938172,12.6596505 154.999909,12.6020922 155.070647,12.5600116 C155.151409,12.5069015 155.237956,12.484472 155.32278,12.4857847 C155.407605,12.484472 155.494152,12.5069015 155.574914,12.5600116 C155.645652,12.6020922 155.707389,12.6596505 155.753291,12.7263702 C155.77825,12.7626488 155.796814,12.7973312 155.813048,12.8351555 C157.728797,15.6538294 158.765287,18.9483281 158.765287,22.3899303 C158.765287,23.3749727 158.680521,24.3493909 158.513474,25.3060321 C160.368706,23.6642522 162.626872,22.5729632 165.061247,22.1116685 L165.794368,21.9727478 L165.644091,22.7036258 C165.126307,25.2218858 163.850186,27.5424912 161.920762,29.3947388 C161.807854,29.5031307 161.693237,29.6094186 161.576956,29.7135789 C163.502086,29.8245077 165.334049,30.4235015 166.916128,31.4415548 L167.569545,31.8620228 L166.916128,32.2824908 C165.155681,33.4153225 163.085828,34.0292759 160.922493,34.0292759 C160.645342,34.0292759 160.369493,34.0192179 160.095358,33.999222 C160.714996,34.8760082 161.141661,35.8602316 161.355306,36.8993006 L161.505583,37.6301786 L160.772462,37.4912579 C159.190107,37.1914143 157.730154,36.451517 156.563134,35.3311778 C156.057488,34.8457571 155.658483,34.3315344 155.32278,33.7404307 C154.987078,34.3315344 154.588073,34.8457571 154.082427,35.3311778 C152.915407,36.451517 151.455454,37.1914143 149.873099,37.4912579 L149.139978,37.6301786 L149.290255,36.8993006 C149.5039,35.8602316 149.930565,34.8760082 150.550203,33.999222 C150.276068,34.0192179 150.000219,34.0292759 149.723068,34.0292759 C147.559733,34.0292759 145.48988,33.4153225 143.729433,32.2824908 L143.076016,31.8620228 L143.729433,31.4415548 C145.311512,30.4235015 147.143475,29.8245077 149.068605,29.7135789 C148.952324,29.6094186 148.837707,29.5031307 148.724799,29.3947388 C146.795374,27.5424912 145.519254,25.2218858 145.00147,22.7036258 L144.851192,21.9727478 L145.584314,22.1116685 C148.018689,22.5729632 150.276855,23.6642522 152.132087,25.3060321 C151.96504,24.3493909 151.880274,23.3749727 151.880274,22.3899303 C151.880274,18.9483281 152.916764,15.6538294 154.832513,12.8351555 Z" id="nav_products"></path>
        </g>
    </g>
</svg>