<?xml version="1.0" encoding="UTF-8"?>
<svg width="23px" height="23px" viewBox="0 0 23 23" version="1.1" xmlns="http://www.w3.org/2000/svg" xmlns:xlink="http://www.w3.org/1999/xlink">
    <!-- Generator: Sketch 52.3 (67297) - http://www.bohemiancoding.com/sketch -->
    <title>nav_explore</title>
    <desc>Created with Sketch.</desc>
    <g id="ui_v1" stroke="none" stroke-width="1" fill="none" fill-rule="evenodd">
        <g id="icons" transform="translate(-22.000000, -15.000000)" fill="#1E1254" fill-rule="nonzero">
            <path d="M40.4045568,34.8147036 C40.0140325,34.4241793 40.0140325,33.7910143 40.4045568,33.40049 C40.795081,33.0099657 41.428246,33.0099657 41.8187703,33.40049 L44.1794275,35.7611472 C44.5699518,36.1516715 44.5699518,36.7848365 44.1794275,37.1753607 C43.7889032,37.565885 43.1557382,37.565885 42.7652139,37.1753607 L40.4045568,34.8147036 Z M33,37 C26.9248678,37 22,32.0751322 22,26 C22,19.9248678 26.9248678,15 33,15 C39.0751322,15 44,19.9248678 44,26 C44,32.0751322 39.0751322,37 33,37 Z M33,36 C38.5228475,36 43,31.5228475 43,26 C43,20.4771525 38.5228475,16 33,16 C27.4771525,16 23,20.4771525 23,26 C23,31.5228475 27.4771525,36 33,36 Z" id="nav_explore"></path>
        </g>
    </g>
</svg>