<?xml version="1.0" encoding="UTF-8"?>
<svg width="21px" height="23px" viewBox="0 0 21 23" version="1.1" xmlns="http://www.w3.org/2000/svg" xmlns:xlink="http://www.w3.org/1999/xlink">
    <!-- Generator: Sketch 52.3 (67297) - http://www.bohemiancoding.com/sketch -->
    <title>nav_bag</title>
    <desc>Created with Sketch.</desc>
    <g id="ui_v1" stroke="none" stroke-width="1" fill="none" fill-rule="evenodd">
        <g id="icons" transform="translate(-201.000000, -14.000000)" fill="#1E1254" fill-rule="nonzero">
            <path d="M221.686318,34.4580199 L219.686318,19.9672698 C219.686318,19.6452531 219.42285,19.386664 219.100834,19.386664 L215.880667,19.386664 L215.880667,18.6058142 C215.880667,16.0638341 213.850986,14 211.343159,14 C208.835332,14 206.805652,16.0687132 206.805652,18.6058142 L206.805652,19.386664 L203.585485,19.386664 C203.263468,19.386664 203,19.6403741 203,19.9672698 L201,34.4580199 C201,35.8583045 202.141695,37 203.537101,37 L219.149217,37 C220.544623,37 221.686318,35.8583045 221.686318,34.4580199 Z M207.976621,18.6058142 C207.976621,16.7127465 209.479366,15.1709697 211.343159,15.1709697 C213.206953,15.1709697 214.709697,16.7127465 214.709697,18.6058142 L214.709697,19.386664 L207.976621,19.386664 L207.976621,18.6058142 Z M220.515349,34.4580199 C220.515349,35.2093922 219.90059,35.8290303 219.149217,35.8290303 L203.537101,35.8290303 C202.785729,35.8290303 202.17097,35.2093922 202.17097,34.4580199 L204.17097,20.5576337 L206.805652,20.5576337 L206.805652,22.0996137 C206.805652,22.4216304 207.06912,22.6850986 207.391136,22.6850986 C207.713153,22.6850986 207.976621,22.4216304 207.976621,22.0996137 L207.976621,20.5576337 L214.709697,20.5576337 L214.709697,22.0996137 C214.709697,22.4216304 214.973165,22.6850986 215.295182,22.6850986 C215.617199,22.6850986 215.880667,22.4216304 215.880667,22.0996137 L215.880667,20.5576337 L218.515349,20.5576337 L220.515349,34.4580199 Z" id="nav_bag"></path>
        </g>
    </g>
</svg>