<?xml version="1.0" encoding="UTF-8"?>
<svg width="21px" height="24px" viewBox="0 0 21 24" version="1.1" xmlns="http://www.w3.org/2000/svg" xmlns:xlink="http://www.w3.org/1999/xlink">
    <!-- Generator: Sketch 52.3 (67297) - http://www.bohemiancoding.com/sketch -->
    <title>top_profile</title>
    <desc>Created with Sketch.</desc>
    <g id="ui_v1" stroke="none" stroke-width="1" fill="none" fill-rule="evenodd">
        <g id="icons" transform="translate(-422.000000, -14.000000)" stroke="#1E1254">
            <path d="M432.589089,15.0034629 C435.138207,15.1025041 437.352715,17.3115661 437.519779,19.7695326 C437.693307,22.3317089 436.73174,24.2246237 435.709826,25.6121114 C435.262973,26.2194129 434.793813,26.6099701 434.864962,27.3414238 C434.949495,28.206312 435.884997,28.4474225 436.55422,28.7124353 C437.347894,29.0273409 438.201446,29.5056169 438.605563,29.7263061 C439.994962,30.4853749 441.520555,31.3982996 441.863385,32.6474795 C442.62348,35.4173497 440.059302,36.255783 437.94268,36.6428594 C436.20199,36.9602834 434.249728,36.9972879 432.607404,36.999842 C432.571763,37 432.53596,36.9999885 432.5,36.9999628 C432.46404,36.9999885 432.428237,37 432.392596,37 C430.750272,36.9972879 428.79801,36.9602834 427.05732,36.6428594 C424.940698,36.255783 422.37652,35.4173497 423.136615,32.6474795 C423.479445,31.3982996 425.005038,30.4853749 426.394437,29.7263061 C426.798554,29.5056169 427.652106,29.0273409 428.44578,28.7124353 C429.115003,28.4474225 430.050505,28.206312 430.135038,27.3414238 C430.206187,26.6099701 429.737027,26.2194129 429.290174,25.6121114 C428.26826,24.2246237 427.306693,22.3317089 427.480221,19.7695326 C427.647285,17.3115661 429.861793,15.1025041 432.410911,15.0034629 C432.410911,15.0023083 432.410911,15.001154 432.410911,15 C432.440648,15 432.470345,15.0002897 432.5,15.0008662 C432.529655,15.0002897 432.559352,15 432.589089,15 C432.589089,15.001154 432.589089,15.0023083 432.589089,15.0034629 Z" id="top_profile"></path>
        </g>
    </g>
</svg>