<?xml version="1.0" encoding="UTF-8"?>
<svg width="23px" height="23px" viewBox="0 0 23 23" version="1.1" xmlns="http://www.w3.org/2000/svg" xmlns:xlink="http://www.w3.org/1999/xlink">
    <!-- Generator: Sketch 52.3 (67297) - http://www.bohemiancoding.com/sketch -->
    <title>top_search</title>
    <desc>Created with Sketch.</desc>
    <g id="ui_v1" stroke="none" stroke-width="1" fill="none" fill-rule="evenodd">
        <g id="icons" transform="translate(-378.000000, -15.000000)" fill="#666666" fill-rule="nonzero">
            <path d="M394.538891,33.5976621 C393.969254,33.0280252 393.969254,32.1044613 394.538891,31.5348244 C395.108528,30.9651876 396.032092,30.9651876 396.601729,31.5348244 L400.045093,34.9781887 C400.61473,35.5478256 400.61473,36.4713894 400.045093,37.0410263 C399.475456,37.6106632 398.551892,37.6106632 397.982255,37.0410263 L394.538891,33.5976621 Z M387.999852,34.9997032 C382.477086,34.9997032 378,30.5226172 378,24.9998516 C378,19.4770861 382.477086,15 387.999852,15 C393.522617,15 397.999703,19.4770861 397.999703,24.9998516 C397.999703,30.5226172 393.522617,34.9997032 387.999852,34.9997032 Z M387.999852,34.0906258 C393.020548,34.0906258 397.090626,30.0205476 397.090626,24.9998516 C397.090626,19.9791557 393.020548,15.9090774 387.999852,15.9090774 C382.979156,15.9090774 378.909077,19.9791557 378.909077,24.9998516 C378.909077,30.0205476 382.979156,34.0906258 387.999852,34.0906258 Z" id="top_search"></path>
        </g>
    </g>
</svg>